<svg id="Group_7" data-name="Group 7" xmlns="http://www.w3.org/2000/svg" width="18.977" height="25.527" viewBox="0 0 18.977 25.527">
  <path id="Icon_awesome-exclamation" data-name="Icon awesome-exclamation" d="M9.1,21.539A3.989,3.989,0,1,1,5.114,17.55,3.993,3.993,0,0,1,9.1,21.539ZM1.587,1.256l.678,13.561a1.2,1.2,0,0,0,1.2,1.137H6.767a1.2,1.2,0,0,0,1.2-1.137L8.641,1.256A1.2,1.2,0,0,0,7.445,0H2.782A1.2,1.2,0,0,0,1.587,1.256Z" transform="translate(-1.125)"/>
  <path id="Icon_awesome-exclamation-2" data-name="Icon awesome-exclamation" d="M9.1,21.539A3.989,3.989,0,1,1,5.114,17.55,3.993,3.993,0,0,1,9.1,21.539ZM1.587,1.256l.678,13.561a1.2,1.2,0,0,0,1.2,1.137H6.767a1.2,1.2,0,0,0,1.2-1.137L8.641,1.256A1.2,1.2,0,0,0,7.445,0H2.782A1.2,1.2,0,0,0,1.587,1.256Z" transform="translate(9.875)"/>
</svg>
