<svg xmlns="http://www.w3.org/2000/svg" width="85" height="85" viewBox="0 0 85 85">
  <g id="Group_53" data-name="Group 53" transform="translate(56 -33)">
    <rect id="Rectangle_1" data-name="Rectangle 1" width="85" height="85" rx="25" transform="translate(-56 33)" fill="#fff"/>
    <path id="Icon_awesome-lightbulb" data-name="Icon awesome-lightbulb" d="M11.444,54.13a3.814,3.814,0,0,0,.639,2.108L14.119,59.3A3.811,3.811,0,0,0,17.293,61h7.352a3.811,3.811,0,0,0,3.174-1.7l2.036-3.061a3.811,3.811,0,0,0,.639-2.108V49.562H11.438ZM0,20.968A20.851,20.851,0,0,0,5.19,34.762a34.238,34.238,0,0,1,6.22,10.9.6.6,0,0,0,.013.093H30.514a.611.611,0,0,1,.013-.093,34.238,34.238,0,0,1,6.22-10.9A20.964,20.964,0,1,0,0,20.968Zm20.968-9.531a9.542,9.542,0,0,0-9.531,9.531,1.906,1.906,0,0,1-3.812,0A13.358,13.358,0,0,1,20.968,7.625a1.906,1.906,0,0,1,0,3.812Z" transform="translate(-34.223 45.001)" fill="#215679"/>
  </g>
</svg>
