<svg xmlns="http://www.w3.org/2000/svg" width="35.257" height="39.885" viewBox="0 0 35.257 39.885">
  <path id="Icon_awesome-chess-rook" data-name="Icon awesome-chess-rook" d="M25.875,2.25H21.938a1.125,1.125,0,0,0-1.125,1.125V6.75H17.438V3.375A1.125,1.125,0,0,0,16.313,2.25H10.688A1.125,1.125,0,0,0,9.563,3.375V6.75H6.195V3.375A1.125,1.125,0,0,0,5.07,2.25H1.125A1.125,1.125,0,0,0,0,3.375V15.75L4.5,18a58.625,58.625,0,0,1-.929,11.25H23.429A58.884,58.884,0,0,1,22.5,18L27,15.75V3.375A1.125,1.125,0,0,0,25.875,2.25ZM15.75,22.5h-4.5V18a2.25,2.25,0,0,1,4.5,0Zm10.125,9H1.125A1.125,1.125,0,0,0,0,32.625v2.25A1.125,1.125,0,0,0,1.125,36h24.75A1.125,1.125,0,0,0,27,34.875v-2.25A1.125,1.125,0,0,0,25.875,31.5Z" transform="translate(-0.62 5.279) rotate(-16)" fill="#fff"/>
</svg>
