<svg xmlns="http://www.w3.org/2000/svg" width="32.301" height="30.507" viewBox="0 0 32.301 30.507">
  <path id="Icon_awesome-reddit-alien" data-name="Icon awesome-reddit-alien" d="M30.018,13.926a3.626,3.626,0,0,0-2.58,1.082,17.5,17.5,0,0,0-9.334-2.88l1.886-8.5,6,1.348a2.673,2.673,0,0,0,2.669,2.669,2.7,2.7,0,1,0-2.4-3.908L19.629,2.27a.634.634,0,0,0-.749.483l-2.07,9.368a17.716,17.716,0,0,0-9.279,2.914,3.59,3.59,0,1,0-4.173,5.705,7.621,7.621,0,0,0-.177,1.682C3.18,28.127,9.607,32.75,17.5,32.75c7.925,0,14.351-4.623,14.351-10.328a6.5,6.5,0,0,0-.211-1.709A3.584,3.584,0,0,0,30.018,13.926ZM8.852,21.1a2.686,2.686,0,1,1,2.7,2.669,2.692,2.692,0,0,1-2.7-2.669Zm14.59,6.366c-2.478,2.478-9.47,2.478-11.948,0a.634.634,0,0,1,0-.933.654.654,0,0,1,.9,0c1.893,1.94,8.17,1.974,10.144,0a.654.654,0,0,1,.9,0A.629.629,0,0,1,23.441,27.467Zm-.054-3.69a2.686,2.686,0,1,1,2.7-2.669A2.673,2.673,0,0,1,23.387,23.777Z" transform="translate(-1.319 -2.243)"/>
</svg>
