<svg xmlns="http://www.w3.org/2000/svg" width="35.5" height="40.391" viewBox="0 0 35.5 40.391">
  <g id="whiteboard" transform="translate(-31)">
    <g id="Group_15" data-name="Group 15" transform="translate(31)">
      <path id="Path_6" data-name="Path 6" d="M64.133,21.6V6.882A3.541,3.541,0,0,0,62.95,0H34.55a3.541,3.541,0,0,0-1.183,6.882V21.6a3.541,3.541,0,0,0,1.183,6.882H44.91l-8.872,9.937A1.183,1.183,0,1,0,37.8,40l9.771-10.935V39.208a1.183,1.183,0,0,0,2.367,0V29.064L59.7,40a1.183,1.183,0,0,0,1.759-1.583L52.59,28.479H62.95A3.541,3.541,0,0,0,64.133,21.6ZM34.55,2.367h28.4a1.183,1.183,0,0,1,0,2.367H34.55a1.183,1.183,0,1,1,0-2.367Zm28.4,23.746H34.55a1.183,1.183,0,0,1,0-2.367h28.4a1.183,1.183,0,0,1,0,2.367Z" transform="translate(-31 0)" fill="#fff"/>
    </g>
  </g>
</svg>
